<svg width="512" height="512" viewBox="0 0 512 512" fill="none" xmlns="http://www.w3.org/2000/svg">
<path d="M374.5 198.8L340.7 165C338.2 162.5 334.1 162.5 331.6 165L228 268.6L186.7 227.3C184.2 224.8 180.1 224.8 177.6 227.3L139.6 265.3C137.1 267.8 137.1 271.9 139.6 274.4L219.2 354C220.5 355.3 222.1 355.9 223.8 355.9C225.5 355.9 227.1 355.3 228.4 354L374.5 207.9C377 205.4 377 201.3 374.5 198.8Z" fill="#004789"/>
<path d="M152.017 436.103C52.5491 378.675 18.4688 251.486 75.8968 152.017C80.7969 143.53 86.205 135.519 92.0603 128H34.3469C34.3428 128.007 34.3386 128.014 34.3345 128.021C-36.3461 250.444 5.59889 406.985 128.021 477.665C158.032 494.992 190.093 505.551 222.437 509.815L189.731 453.167C176.862 448.826 164.231 443.155 152.017 436.103Z" fill="#00AEEF"/>
<path d="M477.665 383.979C430.304 466.011 344.391 511.909 256.025 512L227.164 462.012C308.578 473.379 392.473 435.552 436.103 359.983C462.474 314.306 469.549 262.784 459.857 214.857L492.557 158.218C521.816 229.146 518.994 312.395 477.665 383.979Z" fill="#F5871F"/>
<path d="M53.0394 100H118.388C183.532 42.5205 280.588 30.0584 359.983 75.8968C401.781 100.029 432.033 136.48 448.801 178.017L477.69 127.979C455.975 90.2943 424.354 57.645 383.979 34.3345C271.425 -30.6482 130.033 -0.431961 53.0394 100Z" fill="#00AC65"/>
</svg>
